<mxfile host="Electron" agent="Mozilla/5.0 (Windows NT 10.0; Win64; x64) AppleWebKit/537.36 (KHTML, like Gecko) draw.io/24.7.17 Chrome/128.0.6613.36 Electron/32.0.1 Safari/537.36" version="24.7.17">
  <diagram name="Page-1" id="kgn2ni_5-xnWNcc3iA4O">
    <mxGraphModel dx="3903" dy="1773" grid="0" gridSize="10" guides="1" tooltips="1" connect="1" arrows="1" fold="1" page="0" pageScale="1" pageWidth="850" pageHeight="1100" background="#2A2929" math="0" shadow="0">
      <root>
        <mxCell id="0" />
        <mxCell id="1" parent="0" />
        <mxCell id="ve_Mp5ct2YPk5ltDy3JT-1" value="Start" style="ellipse;whiteSpace=wrap;html=1;labelBackgroundColor=none;" parent="1" vertex="1">
          <mxGeometry x="60" width="120" height="80" as="geometry" />
        </mxCell>
        <mxCell id="ve_Mp5ct2YPk5ltDy3JT-2" value="" style="endArrow=classic;html=1;rounded=0;labelBackgroundColor=none;fontColor=default;" parent="1" edge="1">
          <mxGeometry width="50" height="50" relative="1" as="geometry">
            <mxPoint x="119.33" y="80" as="sourcePoint" />
            <mxPoint x="119.33" y="160" as="targetPoint" />
          </mxGeometry>
        </mxCell>
        <mxCell id="ve_Mp5ct2YPk5ltDy3JT-3" value="&lt;div&gt;Output :&lt;/div&gt;M&lt;span style=&quot;background-color: initial;&quot;&gt;enu&lt;/span&gt;&lt;div&gt;&lt;div&gt;1. Register&lt;/div&gt;&lt;div&gt;2. Login&lt;/div&gt;&lt;div&gt;3. Keluar&lt;/div&gt;&lt;/div&gt;" style="shape=parallelogram;perimeter=parallelogramPerimeter;whiteSpace=wrap;html=1;fixedSize=1;size=20;labelBackgroundColor=none;" parent="1" vertex="1">
          <mxGeometry x="50" y="160" width="140" height="80" as="geometry" />
        </mxCell>
        <mxCell id="ve_Mp5ct2YPk5ltDy3JT-4" value="" style="endArrow=classic;html=1;rounded=0;labelBackgroundColor=none;fontColor=default;entryX=0.5;entryY=0;entryDx=0;entryDy=0;" parent="1" edge="1" target="ve_Mp5ct2YPk5ltDy3JT-6">
          <mxGeometry width="50" height="50" relative="1" as="geometry">
            <mxPoint x="119.33" y="240" as="sourcePoint" />
            <mxPoint x="120" y="258" as="targetPoint" />
          </mxGeometry>
        </mxCell>
        <mxCell id="ve_Mp5ct2YPk5ltDy3JT-6" value="Input Menu" style="shape=parallelogram;perimeter=parallelogramPerimeter;whiteSpace=wrap;html=1;fixedSize=1;labelBackgroundColor=none;" parent="1" vertex="1">
          <mxGeometry x="60" y="264" width="120" height="60" as="geometry" />
        </mxCell>
        <mxCell id="ve_Mp5ct2YPk5ltDy3JT-9" value="" style="endArrow=classic;html=1;rounded=0;labelBackgroundColor=none;fontColor=default;exitX=0.5;exitY=1;exitDx=0;exitDy=0;" parent="1" edge="1" source="ve_Mp5ct2YPk5ltDy3JT-6">
          <mxGeometry width="50" height="50" relative="1" as="geometry">
            <mxPoint x="119.67999999999999" y="352" as="sourcePoint" />
            <mxPoint x="120" y="351" as="targetPoint" />
          </mxGeometry>
        </mxCell>
        <mxCell id="ve_Mp5ct2YPk5ltDy3JT-10" value="Menu = 1" style="rhombus;whiteSpace=wrap;html=1;labelBackgroundColor=none;" parent="1" vertex="1">
          <mxGeometry x="80" y="352" width="80" height="80" as="geometry" />
        </mxCell>
        <mxCell id="ve_Mp5ct2YPk5ltDy3JT-11" value="" style="endArrow=classic;html=1;rounded=0;labelBackgroundColor=none;fontColor=default;exitX=0.5;exitY=1;exitDx=0;exitDy=0;entryX=0.536;entryY=0;entryDx=0;entryDy=0;entryPerimeter=0;" parent="1" edge="1" target="ve_Mp5ct2YPk5ltDy3JT-12" source="ve_Mp5ct2YPk5ltDy3JT-10">
          <mxGeometry width="50" height="50" relative="1" as="geometry">
            <mxPoint x="120.33" y="520" as="sourcePoint" />
            <mxPoint x="120" y="462" as="targetPoint" />
          </mxGeometry>
        </mxCell>
        <mxCell id="ve_Mp5ct2YPk5ltDy3JT-12" value="Input :&lt;div&gt;Username&lt;/div&gt;&lt;div&gt;Password&lt;/div&gt;&lt;div&gt;Role&lt;/div&gt;" style="shape=parallelogram;perimeter=parallelogramPerimeter;whiteSpace=wrap;html=1;fixedSize=1;labelBackgroundColor=none;" parent="1" vertex="1">
          <mxGeometry x="56" y="463" width="120" height="60" as="geometry" />
        </mxCell>
        <mxCell id="ve_Mp5ct2YPk5ltDy3JT-14" value="" style="endArrow=none;html=1;rounded=0;labelBackgroundColor=none;fontColor=default;" parent="1" edge="1">
          <mxGeometry width="50" height="50" relative="1" as="geometry">
            <mxPoint x="115" y="556" as="sourcePoint" />
            <mxPoint x="115.62" y="523" as="targetPoint" />
          </mxGeometry>
        </mxCell>
        <mxCell id="ve_Mp5ct2YPk5ltDy3JT-15" value="" style="endArrow=none;html=1;rounded=0;labelBackgroundColor=none;fontColor=default;" parent="1" edge="1">
          <mxGeometry width="50" height="50" relative="1" as="geometry">
            <mxPoint x="20" y="556" as="sourcePoint" />
            <mxPoint x="116" y="556" as="targetPoint" />
          </mxGeometry>
        </mxCell>
        <mxCell id="ve_Mp5ct2YPk5ltDy3JT-16" style="edgeStyle=orthogonalEdgeStyle;rounded=0;orthogonalLoop=1;jettySize=auto;html=1;exitX=0.5;exitY=1;exitDx=0;exitDy=0;labelBackgroundColor=none;fontColor=default;" parent="1" source="ve_Mp5ct2YPk5ltDy3JT-1" target="ve_Mp5ct2YPk5ltDy3JT-1" edge="1">
          <mxGeometry relative="1" as="geometry" />
        </mxCell>
        <mxCell id="ve_Mp5ct2YPk5ltDy3JT-19" value="" style="endArrow=none;html=1;rounded=0;labelBackgroundColor=none;fontColor=default;" parent="1" edge="1">
          <mxGeometry width="50" height="50" relative="1" as="geometry">
            <mxPoint x="20" y="680" as="sourcePoint" />
            <mxPoint x="20" y="200" as="targetPoint" />
          </mxGeometry>
        </mxCell>
        <mxCell id="ve_Mp5ct2YPk5ltDy3JT-20" value="" style="endArrow=classic;html=1;rounded=0;labelBackgroundColor=none;fontColor=default;" parent="1" target="ve_Mp5ct2YPk5ltDy3JT-3" edge="1">
          <mxGeometry width="50" height="50" relative="1" as="geometry">
            <mxPoint x="20" y="200" as="sourcePoint" />
            <mxPoint x="70" y="150" as="targetPoint" />
          </mxGeometry>
        </mxCell>
        <mxCell id="ve_Mp5ct2YPk5ltDy3JT-25" value="False" style="text;html=1;align=center;verticalAlign=middle;resizable=0;points=[];autosize=1;strokeColor=none;fillColor=none;labelBackgroundColor=none;" parent="1" vertex="1">
          <mxGeometry x="215" y="362" width="50" height="30" as="geometry" />
        </mxCell>
        <mxCell id="3dJlBlgtG13hjPHBw9pj-114" style="edgeStyle=orthogonalEdgeStyle;rounded=0;orthogonalLoop=1;jettySize=auto;html=1;exitX=1;exitY=0.5;exitDx=0;exitDy=0;entryX=0.5;entryY=0;entryDx=0;entryDy=0;" edge="1" parent="1" source="ve_Mp5ct2YPk5ltDy3JT-29" target="ve_Mp5ct2YPk5ltDy3JT-106">
          <mxGeometry relative="1" as="geometry">
            <mxPoint x="707" y="1816" as="targetPoint" />
            <Array as="points">
              <mxPoint x="1310" y="457" />
              <mxPoint x="1310" y="1806" />
              <mxPoint x="707" y="1806" />
            </Array>
          </mxGeometry>
        </mxCell>
        <mxCell id="ve_Mp5ct2YPk5ltDy3JT-29" value="Menu = 2" style="rhombus;whiteSpace=wrap;html=1;labelBackgroundColor=none;" parent="1" vertex="1">
          <mxGeometry x="280" y="417" width="80" height="80" as="geometry" />
        </mxCell>
        <mxCell id="ve_Mp5ct2YPk5ltDy3JT-30" value="" style="endArrow=classic;html=1;rounded=0;labelBackgroundColor=none;fontColor=default;exitX=0.5;exitY=1;exitDx=0;exitDy=0;entryX=0.555;entryY=-0.004;entryDx=0;entryDy=0;entryPerimeter=0;" parent="1" edge="1" target="ve_Mp5ct2YPk5ltDy3JT-31" source="ve_Mp5ct2YPk5ltDy3JT-29">
          <mxGeometry width="50" height="50" relative="1" as="geometry">
            <mxPoint x="319.5" y="497" as="sourcePoint" />
            <mxPoint x="319.5" y="537" as="targetPoint" />
          </mxGeometry>
        </mxCell>
        <mxCell id="ve_Mp5ct2YPk5ltDy3JT-31" value="Input :&lt;div&gt;Username&lt;/div&gt;&lt;div&gt;Password&lt;/div&gt;" style="shape=parallelogram;perimeter=parallelogramPerimeter;whiteSpace=wrap;html=1;fixedSize=1;labelBackgroundColor=none;" parent="1" vertex="1">
          <mxGeometry x="255" y="537" width="120" height="60" as="geometry" />
        </mxCell>
        <mxCell id="ve_Mp5ct2YPk5ltDy3JT-32" value="" style="endArrow=classic;html=1;rounded=0;labelBackgroundColor=none;fontColor=default;exitX=0.5;exitY=1;exitDx=0;exitDy=0;entryX=0.5;entryY=0;entryDx=0;entryDy=0;" parent="1" target="ve_Mp5ct2YPk5ltDy3JT-33" edge="1" source="ve_Mp5ct2YPk5ltDy3JT-31">
          <mxGeometry width="50" height="50" relative="1" as="geometry">
            <mxPoint x="321" y="700" as="sourcePoint" />
            <mxPoint x="315" y="636" as="targetPoint" />
          </mxGeometry>
        </mxCell>
        <mxCell id="ve_Mp5ct2YPk5ltDy3JT-33" value="Username == Username&lt;div&gt;dan&lt;/div&gt;&lt;div&gt;Password == Password&lt;/div&gt;" style="rhombus;whiteSpace=wrap;html=1;labelBackgroundColor=none;" parent="1" vertex="1">
          <mxGeometry x="219" y="637" width="192" height="171" as="geometry" />
        </mxCell>
        <mxCell id="ve_Mp5ct2YPk5ltDy3JT-34" value="" style="endArrow=classic;html=1;rounded=0;labelBackgroundColor=none;fontColor=default;exitX=0.5;exitY=1;exitDx=0;exitDy=0;entryX=0.5;entryY=0;entryDx=0;entryDy=0;" parent="1" source="ve_Mp5ct2YPk5ltDy3JT-33" edge="1" target="ve_Mp5ct2YPk5ltDy3JT-37">
          <mxGeometry width="50" height="50" relative="1" as="geometry">
            <mxPoint x="320" y="880" as="sourcePoint" />
            <mxPoint x="315" y="854" as="targetPoint" />
          </mxGeometry>
        </mxCell>
        <mxCell id="ve_Mp5ct2YPk5ltDy3JT-35" value="" style="endArrow=none;html=1;rounded=0;labelBackgroundColor=none;fontColor=default;" parent="1" edge="1">
          <mxGeometry width="50" height="50" relative="1" as="geometry">
            <mxPoint x="20" y="721" as="sourcePoint" />
            <mxPoint x="20" y="680" as="targetPoint" />
          </mxGeometry>
        </mxCell>
        <mxCell id="ve_Mp5ct2YPk5ltDy3JT-36" value="" style="endArrow=none;html=1;rounded=0;labelBackgroundColor=none;fontColor=default;entryX=0;entryY=0.5;entryDx=0;entryDy=0;" parent="1" target="ve_Mp5ct2YPk5ltDy3JT-33" edge="1">
          <mxGeometry width="50" height="50" relative="1" as="geometry">
            <mxPoint x="20" y="721" as="sourcePoint" />
            <mxPoint x="266" y="820" as="targetPoint" />
          </mxGeometry>
        </mxCell>
        <mxCell id="ve_Mp5ct2YPk5ltDy3JT-37" value="Role = admin" style="rhombus;whiteSpace=wrap;html=1;labelBackgroundColor=none;" parent="1" vertex="1">
          <mxGeometry x="265" y="854" width="100" height="86" as="geometry" />
        </mxCell>
        <mxCell id="ve_Mp5ct2YPk5ltDy3JT-38" value="" style="endArrow=classic;html=1;rounded=0;exitX=0.487;exitY=1.036;exitDx=0;exitDy=0;exitPerimeter=0;labelBackgroundColor=none;fontColor=default;entryX=0.5;entryY=0;entryDx=0;entryDy=0;" parent="1" source="ve_Mp5ct2YPk5ltDy3JT-37" target="3dJlBlgtG13hjPHBw9pj-56" edge="1">
          <mxGeometry width="50" height="50" relative="1" as="geometry">
            <mxPoint x="320" y="1050" as="sourcePoint" />
            <mxPoint x="314" y="1199" as="targetPoint" />
          </mxGeometry>
        </mxCell>
        <mxCell id="ve_Mp5ct2YPk5ltDy3JT-40" value="" style="endArrow=classic;html=1;rounded=0;labelBackgroundColor=none;fontColor=default;exitX=0.522;exitY=1.007;exitDx=0;exitDy=0;exitPerimeter=0;entryX=0.514;entryY=-0.003;entryDx=0;entryDy=0;entryPerimeter=0;" parent="1" source="3dJlBlgtG13hjPHBw9pj-56" edge="1" target="ve_Mp5ct2YPk5ltDy3JT-41">
          <mxGeometry width="50" height="50" relative="1" as="geometry">
            <mxPoint x="318.0000000000002" y="1251" as="sourcePoint" />
            <mxPoint x="318" y="1286" as="targetPoint" />
          </mxGeometry>
        </mxCell>
        <mxCell id="ve_Mp5ct2YPk5ltDy3JT-41" value="&lt;div&gt;&lt;span style=&quot;background-color: initial;&quot;&gt;Menu Admin&lt;/span&gt;&lt;br&gt;&lt;/div&gt;" style="shape=parallelogram;perimeter=parallelogramPerimeter;whiteSpace=wrap;html=1;fixedSize=1;labelBackgroundColor=none;" parent="1" vertex="1">
          <mxGeometry x="257" y="1287" width="118" height="43" as="geometry" />
        </mxCell>
        <mxCell id="ve_Mp5ct2YPk5ltDy3JT-42" value="" style="endArrow=classic;html=1;rounded=0;labelBackgroundColor=none;fontColor=default;exitX=0.5;exitY=1;exitDx=0;exitDy=0;entryX=0.5;entryY=0;entryDx=0;entryDy=0;" parent="1" edge="1" target="ve_Mp5ct2YPk5ltDy3JT-43" source="ve_Mp5ct2YPk5ltDy3JT-41">
          <mxGeometry width="50" height="50" relative="1" as="geometry">
            <mxPoint x="320" y="1620" as="sourcePoint" />
            <mxPoint x="316" y="1363" as="targetPoint" />
          </mxGeometry>
        </mxCell>
        <mxCell id="ve_Mp5ct2YPk5ltDy3JT-43" value="Menu = 1" style="rhombus;whiteSpace=wrap;html=1;labelBackgroundColor=none;" parent="1" vertex="1">
          <mxGeometry x="276" y="1360" width="80" height="80" as="geometry" />
        </mxCell>
        <mxCell id="ve_Mp5ct2YPk5ltDy3JT-44" value="" style="endArrow=classic;html=1;rounded=0;labelBackgroundColor=none;fontColor=default;exitX=0.5;exitY=1;exitDx=0;exitDy=0;entryX=0.5;entryY=0;entryDx=0;entryDy=0;" parent="1" edge="1" target="3dJlBlgtG13hjPHBw9pj-58" source="ve_Mp5ct2YPk5ltDy3JT-43">
          <mxGeometry width="50" height="50" relative="1" as="geometry">
            <mxPoint x="320.89" y="1740" as="sourcePoint" />
            <mxPoint x="320" y="1503" as="targetPoint" />
          </mxGeometry>
        </mxCell>
        <mxCell id="ve_Mp5ct2YPk5ltDy3JT-48" value="" style="endArrow=none;html=1;rounded=0;labelBackgroundColor=none;fontColor=default;" parent="1" edge="1">
          <mxGeometry width="50" height="50" relative="1" as="geometry">
            <mxPoint x="130" y="1756" as="sourcePoint" />
            <mxPoint x="130" y="1417" as="targetPoint" />
          </mxGeometry>
        </mxCell>
        <mxCell id="3dJlBlgtG13hjPHBw9pj-103" style="edgeStyle=orthogonalEdgeStyle;rounded=0;orthogonalLoop=1;jettySize=auto;html=1;exitX=1;exitY=0.5;exitDx=0;exitDy=0;entryX=0.5;entryY=0;entryDx=0;entryDy=0;" edge="1" parent="1" source="ve_Mp5ct2YPk5ltDy3JT-78" target="ve_Mp5ct2YPk5ltDy3JT-87">
          <mxGeometry relative="1" as="geometry">
            <mxPoint x="1070.2945692274307" y="1632.995564778646" as="targetPoint" />
          </mxGeometry>
        </mxCell>
        <mxCell id="ve_Mp5ct2YPk5ltDy3JT-78" value="Menu = 4" style="rhombus;whiteSpace=wrap;html=1;labelBackgroundColor=none;" parent="1" vertex="1">
          <mxGeometry x="789" y="1550" width="80" height="80" as="geometry" />
        </mxCell>
        <mxCell id="3dJlBlgtG13hjPHBw9pj-105" style="edgeStyle=orthogonalEdgeStyle;rounded=0;orthogonalLoop=1;jettySize=auto;html=1;exitX=1;exitY=0.5;exitDx=0;exitDy=0;entryX=0.5;entryY=0;entryDx=0;entryDy=0;" edge="1" parent="1" source="ve_Mp5ct2YPk5ltDy3JT-87" target="3dJlBlgtG13hjPHBw9pj-106">
          <mxGeometry relative="1" as="geometry">
            <mxPoint x="1218.9102783203125" y="1697.8926696777344" as="targetPoint" />
          </mxGeometry>
        </mxCell>
        <mxCell id="ve_Mp5ct2YPk5ltDy3JT-87" value="Menu = 5" style="rhombus;whiteSpace=wrap;html=1;labelBackgroundColor=none;" parent="1" vertex="1">
          <mxGeometry x="985" y="1611" width="80" height="80" as="geometry" />
        </mxCell>
        <mxCell id="ve_Mp5ct2YPk5ltDy3JT-96" value="" style="endArrow=none;html=1;rounded=0;labelBackgroundColor=none;fontColor=default;" parent="1" edge="1">
          <mxGeometry width="50" height="50" relative="1" as="geometry">
            <mxPoint x="1278.29" y="1749" as="sourcePoint" />
            <mxPoint x="1278" y="1236" as="targetPoint" />
          </mxGeometry>
        </mxCell>
        <mxCell id="ve_Mp5ct2YPk5ltDy3JT-102" value="" style="endArrow=none;html=1;rounded=0;labelBackgroundColor=none;fontColor=default;" parent="1" edge="1">
          <mxGeometry width="50" height="50" relative="1" as="geometry">
            <mxPoint x="-160" y="1782" as="sourcePoint" />
            <mxPoint x="1026" y="1782" as="targetPoint" />
          </mxGeometry>
        </mxCell>
        <mxCell id="ve_Mp5ct2YPk5ltDy3JT-103" value="" style="endArrow=none;html=1;rounded=0;labelBackgroundColor=none;fontColor=default;" parent="1" edge="1">
          <mxGeometry width="50" height="50" relative="1" as="geometry">
            <mxPoint x="-160" y="1783" as="sourcePoint" />
            <mxPoint x="-160" y="200" as="targetPoint" />
          </mxGeometry>
        </mxCell>
        <mxCell id="ve_Mp5ct2YPk5ltDy3JT-104" value="" style="endArrow=classic;html=1;rounded=0;labelBackgroundColor=none;fontColor=default;" parent="1" target="ve_Mp5ct2YPk5ltDy3JT-3" edge="1">
          <mxGeometry width="50" height="50" relative="1" as="geometry">
            <mxPoint x="-160" y="200" as="sourcePoint" />
            <mxPoint x="-110" y="150" as="targetPoint" />
          </mxGeometry>
        </mxCell>
        <mxCell id="ve_Mp5ct2YPk5ltDy3JT-106" value="Emd" style="ellipse;whiteSpace=wrap;html=1;labelBackgroundColor=none;" parent="1" vertex="1">
          <mxGeometry x="647" y="1837" width="120" height="80" as="geometry" />
        </mxCell>
        <mxCell id="ve_Mp5ct2YPk5ltDy3JT-107" value="True" style="text;html=1;align=center;verticalAlign=middle;whiteSpace=wrap;rounded=0;labelBackgroundColor=none;" parent="1" vertex="1">
          <mxGeometry x="72" y="428" width="60" height="30" as="geometry" />
        </mxCell>
        <mxCell id="ve_Mp5ct2YPk5ltDy3JT-108" value="True" style="text;html=1;align=center;verticalAlign=middle;whiteSpace=wrap;rounded=0;labelBackgroundColor=none;" parent="1" vertex="1">
          <mxGeometry x="265" y="502" width="60" height="30" as="geometry" />
        </mxCell>
        <mxCell id="ve_Mp5ct2YPk5ltDy3JT-109" value="False" style="text;html=1;align=center;verticalAlign=middle;whiteSpace=wrap;rounded=0;labelBackgroundColor=none;" parent="1" vertex="1">
          <mxGeometry x="400" y="530" width="60" height="30" as="geometry" />
        </mxCell>
        <mxCell id="ve_Mp5ct2YPk5ltDy3JT-110" value="True" style="text;html=1;align=center;verticalAlign=middle;whiteSpace=wrap;rounded=0;labelBackgroundColor=none;" parent="1" vertex="1">
          <mxGeometry x="257" y="1026" width="60" height="30" as="geometry" />
        </mxCell>
        <mxCell id="ve_Mp5ct2YPk5ltDy3JT-111" value="" style="endArrow=none;html=1;rounded=0;labelBackgroundColor=none;fontColor=default;exitX=1;exitY=0.5;exitDx=0;exitDy=0;" parent="1" edge="1" source="ve_Mp5ct2YPk5ltDy3JT-37">
          <mxGeometry width="50" height="50" relative="1" as="geometry">
            <mxPoint x="378" y="898" as="sourcePoint" />
            <mxPoint x="553" y="898" as="targetPoint" />
          </mxGeometry>
        </mxCell>
        <mxCell id="ve_Mp5ct2YPk5ltDy3JT-112" value="False" style="text;html=1;align=center;verticalAlign=middle;whiteSpace=wrap;rounded=0;labelBackgroundColor=none;" parent="1" vertex="1">
          <mxGeometry x="452" y="867" width="60" height="30" as="geometry" />
        </mxCell>
        <mxCell id="ve_Mp5ct2YPk5ltDy3JT-114" value="Output :&lt;div&gt;Menu User&lt;br&gt;&lt;div&gt;1. Tampilkan Data&lt;/div&gt;&lt;div&gt;2. Logout&lt;/div&gt;&lt;/div&gt;" style="shape=parallelogram;perimeter=parallelogramPerimeter;whiteSpace=wrap;html=1;fixedSize=1;labelBackgroundColor=none;" parent="1" vertex="1">
          <mxGeometry x="478" y="919" width="140" height="60" as="geometry" />
        </mxCell>
        <mxCell id="ve_Mp5ct2YPk5ltDy3JT-115" value="" style="endArrow=classic;html=1;rounded=0;entryX=0.5;entryY=0;entryDx=0;entryDy=0;labelBackgroundColor=none;fontColor=default;" parent="1" target="ve_Mp5ct2YPk5ltDy3JT-116" edge="1">
          <mxGeometry width="50" height="50" relative="1" as="geometry">
            <mxPoint x="548" y="979" as="sourcePoint" />
            <mxPoint x="548" y="999" as="targetPoint" />
          </mxGeometry>
        </mxCell>
        <mxCell id="ve_Mp5ct2YPk5ltDy3JT-116" value="Menu = 1" style="rhombus;whiteSpace=wrap;html=1;labelBackgroundColor=none;" parent="1" vertex="1">
          <mxGeometry x="508" y="1009" width="80" height="70" as="geometry" />
        </mxCell>
        <mxCell id="ve_Mp5ct2YPk5ltDy3JT-118" value="" style="endArrow=classic;html=1;rounded=0;labelBackgroundColor=none;fontColor=default;entryX=0.458;entryY=0.009;entryDx=0;entryDy=0;entryPerimeter=0;" parent="1" edge="1" target="3dJlBlgtG13hjPHBw9pj-49">
          <mxGeometry width="50" height="50" relative="1" as="geometry">
            <mxPoint x="548" y="1079" as="sourcePoint" />
            <mxPoint x="548" y="1119" as="targetPoint" />
          </mxGeometry>
        </mxCell>
        <mxCell id="ve_Mp5ct2YPk5ltDy3JT-119" value="True" style="text;html=1;align=center;verticalAlign=middle;whiteSpace=wrap;rounded=0;labelBackgroundColor=none;" parent="1" vertex="1">
          <mxGeometry x="534" y="1075" width="60" height="30" as="geometry" />
        </mxCell>
        <mxCell id="ve_Mp5ct2YPk5ltDy3JT-124" value="" style="endArrow=none;html=1;rounded=0;labelBackgroundColor=none;fontColor=default;entryX=0.481;entryY=1;entryDx=0;entryDy=0;entryPerimeter=0;" parent="1" edge="1" target="3dJlBlgtG13hjPHBw9pj-49">
          <mxGeometry width="50" height="50" relative="1" as="geometry">
            <mxPoint x="551" y="1182" as="sourcePoint" />
            <mxPoint x="545" y="1179" as="targetPoint" />
          </mxGeometry>
        </mxCell>
        <mxCell id="ve_Mp5ct2YPk5ltDy3JT-125" value="" style="endArrow=none;html=1;rounded=0;labelBackgroundColor=none;fontColor=default;" parent="1" edge="1">
          <mxGeometry width="50" height="50" relative="1" as="geometry">
            <mxPoint x="426" y="1183" as="sourcePoint" />
            <mxPoint x="551" y="1182" as="targetPoint" />
          </mxGeometry>
        </mxCell>
        <mxCell id="ve_Mp5ct2YPk5ltDy3JT-126" value="" style="endArrow=none;html=1;rounded=0;labelBackgroundColor=none;fontColor=default;" parent="1" edge="1">
          <mxGeometry width="50" height="50" relative="1" as="geometry">
            <mxPoint x="426" y="1183" as="sourcePoint" />
            <mxPoint x="426" y="949" as="targetPoint" />
          </mxGeometry>
        </mxCell>
        <mxCell id="ve_Mp5ct2YPk5ltDy3JT-127" value="" style="endArrow=classic;html=1;rounded=0;entryX=0;entryY=0.5;entryDx=0;entryDy=0;labelBackgroundColor=none;fontColor=default;" parent="1" target="ve_Mp5ct2YPk5ltDy3JT-114" edge="1">
          <mxGeometry width="50" height="50" relative="1" as="geometry">
            <mxPoint x="426" y="949" as="sourcePoint" />
            <mxPoint x="476" y="899" as="targetPoint" />
          </mxGeometry>
        </mxCell>
        <mxCell id="ve_Mp5ct2YPk5ltDy3JT-128" value="" style="endArrow=none;html=1;rounded=0;labelBackgroundColor=none;fontColor=default;exitX=1;exitY=0.5;exitDx=0;exitDy=0;" parent="1" source="ve_Mp5ct2YPk5ltDy3JT-116" edge="1">
          <mxGeometry width="50" height="50" relative="1" as="geometry">
            <mxPoint x="874" y="1197" as="sourcePoint" />
            <mxPoint x="705" y="1044" as="targetPoint" />
          </mxGeometry>
        </mxCell>
        <mxCell id="ve_Mp5ct2YPk5ltDy3JT-129" value="" style="endArrow=none;html=1;rounded=0;labelBackgroundColor=none;fontColor=default;" parent="1" edge="1">
          <mxGeometry width="50" height="50" relative="1" as="geometry">
            <mxPoint x="705" y="1043" as="sourcePoint" />
            <mxPoint x="705" y="200" as="targetPoint" />
          </mxGeometry>
        </mxCell>
        <mxCell id="ve_Mp5ct2YPk5ltDy3JT-130" value="" style="endArrow=classic;html=1;rounded=0;entryX=1;entryY=0.5;entryDx=0;entryDy=0;labelBackgroundColor=none;fontColor=default;" parent="1" target="ve_Mp5ct2YPk5ltDy3JT-3" edge="1">
          <mxGeometry width="50" height="50" relative="1" as="geometry">
            <mxPoint x="705" y="201" as="sourcePoint" />
            <mxPoint x="890" y="150" as="targetPoint" />
          </mxGeometry>
        </mxCell>
        <mxCell id="ve_Mp5ct2YPk5ltDy3JT-131" value="False" style="text;html=1;align=center;verticalAlign=middle;whiteSpace=wrap;rounded=0;labelBackgroundColor=none;" parent="1" vertex="1">
          <mxGeometry x="623" y="1005" width="60" height="30" as="geometry" />
        </mxCell>
        <mxCell id="ve_Mp5ct2YPk5ltDy3JT-133" value="True" style="text;html=1;align=center;verticalAlign=middle;whiteSpace=wrap;rounded=0;labelBackgroundColor=none;" parent="1" vertex="1">
          <mxGeometry x="260" y="1445" width="60" height="30" as="geometry" />
        </mxCell>
        <mxCell id="ve_Mp5ct2YPk5ltDy3JT-143" value="True" style="text;html=1;align=center;verticalAlign=middle;whiteSpace=wrap;rounded=0;labelBackgroundColor=none;" parent="1" vertex="1">
          <mxGeometry x="260" y="813" width="60" height="30" as="geometry" />
        </mxCell>
        <mxCell id="ve_Mp5ct2YPk5ltDy3JT-144" value="False" style="text;html=1;align=center;verticalAlign=middle;whiteSpace=wrap;rounded=0;labelBackgroundColor=none;" parent="1" vertex="1">
          <mxGeometry x="95" y="689" width="60" height="30" as="geometry" />
        </mxCell>
        <mxCell id="fWSvCRs7864mjTmNzSij-7" value="" style="endArrow=classic;html=1;rounded=0;entryX=0;entryY=0.25;entryDx=0;entryDy=0;" parent="1" edge="1" target="ve_Mp5ct2YPk5ltDy3JT-41">
          <mxGeometry width="50" height="50" relative="1" as="geometry">
            <mxPoint x="226" y="1300" as="sourcePoint" />
            <mxPoint x="263" y="1398" as="targetPoint" />
          </mxGeometry>
        </mxCell>
        <mxCell id="fWSvCRs7864mjTmNzSij-15" value="" style="endArrow=classic;html=1;rounded=0;" parent="1" edge="1">
          <mxGeometry width="50" height="50" relative="1" as="geometry">
            <mxPoint x="600" y="972" as="sourcePoint" />
            <mxPoint x="633" y="973" as="targetPoint" />
          </mxGeometry>
        </mxCell>
        <mxCell id="fWSvCRs7864mjTmNzSij-16" value="" style="endArrow=classic;html=1;rounded=0;entryX=0.119;entryY=0.225;entryDx=0;entryDy=0;entryPerimeter=0;" parent="1" target="ve_Mp5ct2YPk5ltDy3JT-31" edge="1">
          <mxGeometry width="50" height="50" relative="1" as="geometry">
            <mxPoint x="222" y="551" as="sourcePoint" />
            <mxPoint x="269" y="653" as="targetPoint" />
          </mxGeometry>
        </mxCell>
        <mxCell id="fWSvCRs7864mjTmNzSij-17" value="" style="endArrow=classic;html=1;rounded=0;entryX=0.12;entryY=0.23;entryDx=0;entryDy=0;entryPerimeter=0;" parent="1" edge="1" target="ve_Mp5ct2YPk5ltDy3JT-12">
          <mxGeometry width="50" height="50" relative="1" as="geometry">
            <mxPoint x="40" y="477" as="sourcePoint" />
            <mxPoint x="77" y="568" as="targetPoint" />
          </mxGeometry>
        </mxCell>
        <mxCell id="fWSvCRs7864mjTmNzSij-18" value="" style="endArrow=classic;html=1;rounded=0;entryX=0;entryY=0;entryDx=0;entryDy=0;" parent="1" edge="1" target="ve_Mp5ct2YPk5ltDy3JT-6">
          <mxGeometry width="50" height="50" relative="1" as="geometry">
            <mxPoint x="48" y="273" as="sourcePoint" />
            <mxPoint x="75" y="274" as="targetPoint" />
          </mxGeometry>
        </mxCell>
        <mxCell id="fWSvCRs7864mjTmNzSij-19" value="" style="endArrow=classic;html=1;rounded=0;exitX=1;exitY=1;exitDx=0;exitDy=0;" parent="1" source="ve_Mp5ct2YPk5ltDy3JT-3" edge="1">
          <mxGeometry width="50" height="50" relative="1" as="geometry">
            <mxPoint x="175" y="230" as="sourcePoint" />
            <mxPoint x="201" y="230" as="targetPoint" />
          </mxGeometry>
        </mxCell>
        <mxCell id="3dJlBlgtG13hjPHBw9pj-1" value="dataawal" style="shape=process;whiteSpace=wrap;html=1;backgroundOutline=1;" vertex="1" parent="1">
          <mxGeometry x="458" y="-278" width="120" height="60" as="geometry" />
        </mxCell>
        <mxCell id="3dJlBlgtG13hjPHBw9pj-2" value="" style="endArrow=classic;html=1;rounded=0;" edge="1" parent="1">
          <mxGeometry width="50" height="50" relative="1" as="geometry">
            <mxPoint x="518.5" y="-218" as="sourcePoint" />
            <mxPoint x="517.5" y="-177" as="targetPoint" />
          </mxGeometry>
        </mxCell>
        <mxCell id="3dJlBlgtG13hjPHBw9pj-3" value="data = 0" style="rhombus;whiteSpace=wrap;html=1;" vertex="1" parent="1">
          <mxGeometry x="478" y="-177" width="80" height="80" as="geometry" />
        </mxCell>
        <mxCell id="3dJlBlgtG13hjPHBw9pj-4" value="" style="endArrow=classic;html=1;rounded=0;exitX=0.5;exitY=1;exitDx=0;exitDy=0;" edge="1" parent="1" source="3dJlBlgtG13hjPHBw9pj-3">
          <mxGeometry width="50" height="50" relative="1" as="geometry">
            <mxPoint x="516" y="-81" as="sourcePoint" />
            <mxPoint x="518" y="-66" as="targetPoint" />
          </mxGeometry>
        </mxCell>
        <mxCell id="3dJlBlgtG13hjPHBw9pj-5" value="True" style="edgeLabel;html=1;align=center;verticalAlign=middle;resizable=0;points=[];" vertex="1" connectable="0" parent="3dJlBlgtG13hjPHBw9pj-4">
          <mxGeometry x="-0.3162" relative="1" as="geometry">
            <mxPoint x="14" y="-1" as="offset" />
          </mxGeometry>
        </mxCell>
        <mxCell id="3dJlBlgtG13hjPHBw9pj-6" value="&quot;Data Kosong&quot;" style="shape=parallelogram;perimeter=parallelogramPerimeter;whiteSpace=wrap;html=1;fixedSize=1;" vertex="1" parent="1">
          <mxGeometry x="458" y="-65" width="120" height="60" as="geometry" />
        </mxCell>
        <mxCell id="3dJlBlgtG13hjPHBw9pj-7" value="False" style="edgeLabel;html=1;align=center;verticalAlign=middle;resizable=0;points=[];" vertex="1" connectable="0" parent="1">
          <mxGeometry x="443" y="-148.99819672131144" as="geometry" />
        </mxCell>
        <mxCell id="3dJlBlgtG13hjPHBw9pj-8" value="" style="endArrow=classic;html=1;rounded=0;exitX=1;exitY=1;exitDx=0;exitDy=0;" edge="1" parent="1" source="3dJlBlgtG13hjPHBw9pj-6">
          <mxGeometry width="50" height="50" relative="1" as="geometry">
            <mxPoint x="618" y="-2" as="sourcePoint" />
            <mxPoint x="607" y="-14" as="targetPoint" />
          </mxGeometry>
        </mxCell>
        <mxCell id="3dJlBlgtG13hjPHBw9pj-12" value="" style="endArrow=classic;html=1;rounded=0;exitX=0;exitY=0.5;exitDx=0;exitDy=0;" edge="1" parent="1" source="3dJlBlgtG13hjPHBw9pj-3">
          <mxGeometry width="50" height="50" relative="1" as="geometry">
            <mxPoint x="431" y="-104" as="sourcePoint" />
            <mxPoint x="404" y="-125" as="targetPoint" />
            <Array as="points">
              <mxPoint x="404" y="-138" />
            </Array>
          </mxGeometry>
        </mxCell>
        <mxCell id="3dJlBlgtG13hjPHBw9pj-13" value="Print Data" style="shape=parallelogram;perimeter=parallelogramPerimeter;whiteSpace=wrap;html=1;fixedSize=1;" vertex="1" parent="1">
          <mxGeometry x="341" y="-125" width="102" height="46" as="geometry" />
        </mxCell>
        <mxCell id="3dJlBlgtG13hjPHBw9pj-14" value="" style="endArrow=classic;html=1;rounded=0;exitX=1;exitY=1;exitDx=0;exitDy=0;" edge="1" parent="1" source="3dJlBlgtG13hjPHBw9pj-13">
          <mxGeometry width="50" height="50" relative="1" as="geometry">
            <mxPoint x="417" y="-58" as="sourcePoint" />
            <mxPoint x="455" y="-87" as="targetPoint" />
          </mxGeometry>
        </mxCell>
        <mxCell id="3dJlBlgtG13hjPHBw9pj-15" value="datatambah" style="shape=process;whiteSpace=wrap;html=1;backgroundOutline=1;" vertex="1" parent="1">
          <mxGeometry x="661" y="-278" width="120" height="60" as="geometry" />
        </mxCell>
        <mxCell id="3dJlBlgtG13hjPHBw9pj-17" value="" style="endArrow=classic;html=1;rounded=0;exitX=0.5;exitY=1;exitDx=0;exitDy=0;entryX=0.532;entryY=-0.002;entryDx=0;entryDy=0;entryPerimeter=0;" edge="1" parent="1" source="3dJlBlgtG13hjPHBw9pj-15" target="3dJlBlgtG13hjPHBw9pj-18">
          <mxGeometry width="50" height="50" relative="1" as="geometry">
            <mxPoint x="724" y="-135" as="sourcePoint" />
            <mxPoint x="721" y="-192" as="targetPoint" />
          </mxGeometry>
        </mxCell>
        <mxCell id="3dJlBlgtG13hjPHBw9pj-18" value="Pajak&lt;div&gt;Plat&lt;/div&gt;&lt;div&gt;Status&lt;/div&gt;" style="shape=parallelogram;perimeter=parallelogramPerimeter;whiteSpace=wrap;html=1;fixedSize=1;" vertex="1" parent="1">
          <mxGeometry x="657" y="-191" width="120" height="60" as="geometry" />
        </mxCell>
        <mxCell id="3dJlBlgtG13hjPHBw9pj-19" value="" style="endArrow=classic;html=1;rounded=0;entryX=0;entryY=0;entryDx=0;entryDy=0;" edge="1" parent="1" target="3dJlBlgtG13hjPHBw9pj-18">
          <mxGeometry width="50" height="50" relative="1" as="geometry">
            <mxPoint x="635" y="-182" as="sourcePoint" />
            <mxPoint x="646" y="-173" as="targetPoint" />
          </mxGeometry>
        </mxCell>
        <mxCell id="3dJlBlgtG13hjPHBw9pj-20" value="" style="endArrow=classic;html=1;rounded=0;exitX=0.5;exitY=1;exitDx=0;exitDy=0;entryX=0.5;entryY=0;entryDx=0;entryDy=0;" edge="1" parent="1" source="3dJlBlgtG13hjPHBw9pj-18" target="3dJlBlgtG13hjPHBw9pj-21">
          <mxGeometry width="50" height="50" relative="1" as="geometry">
            <mxPoint x="693" y="-57" as="sourcePoint" />
            <mxPoint x="717" y="-111" as="targetPoint" />
          </mxGeometry>
        </mxCell>
        <mxCell id="3dJlBlgtG13hjPHBw9pj-21" value="Hasil Input Masuk ke Data" style="rounded=1;whiteSpace=wrap;html=1;" vertex="1" parent="1">
          <mxGeometry x="657" y="-106" width="120" height="60" as="geometry" />
        </mxCell>
        <mxCell id="3dJlBlgtG13hjPHBw9pj-23" value="dataupdate" style="shape=process;whiteSpace=wrap;html=1;backgroundOutline=1;" vertex="1" parent="1">
          <mxGeometry x="856" y="-277" width="119" height="60" as="geometry" />
        </mxCell>
        <mxCell id="3dJlBlgtG13hjPHBw9pj-24" value="" style="endArrow=classic;html=1;rounded=0;exitX=0.5;exitY=1;exitDx=0;exitDy=0;entryX=0.534;entryY=0.005;entryDx=0;entryDy=0;entryPerimeter=0;" edge="1" parent="1" source="3dJlBlgtG13hjPHBw9pj-23" target="3dJlBlgtG13hjPHBw9pj-29">
          <mxGeometry width="50" height="50" relative="1" as="geometry">
            <mxPoint x="918" y="-134" as="sourcePoint" />
            <mxPoint x="915" y="-205" as="targetPoint" />
          </mxGeometry>
        </mxCell>
        <mxCell id="3dJlBlgtG13hjPHBw9pj-25" value="Pajak&lt;div&gt;Plat&lt;/div&gt;&lt;div&gt;Status&lt;/div&gt;" style="shape=parallelogram;perimeter=parallelogramPerimeter;whiteSpace=wrap;html=1;fixedSize=1;" vertex="1" parent="1">
          <mxGeometry x="841" y="-108" width="120" height="60" as="geometry" />
        </mxCell>
        <mxCell id="3dJlBlgtG13hjPHBw9pj-26" value="" style="endArrow=classic;html=1;rounded=0;entryX=0;entryY=0;entryDx=0;entryDy=0;" edge="1" parent="1" target="3dJlBlgtG13hjPHBw9pj-25">
          <mxGeometry width="50" height="50" relative="1" as="geometry">
            <mxPoint x="819" y="-99" as="sourcePoint" />
            <mxPoint x="830" y="-90" as="targetPoint" />
          </mxGeometry>
        </mxCell>
        <mxCell id="3dJlBlgtG13hjPHBw9pj-27" value="" style="endArrow=classic;html=1;rounded=0;exitX=0.5;exitY=1;exitDx=0;exitDy=0;entryX=0.5;entryY=0;entryDx=0;entryDy=0;" edge="1" parent="1" source="3dJlBlgtG13hjPHBw9pj-25" target="3dJlBlgtG13hjPHBw9pj-28">
          <mxGeometry width="50" height="50" relative="1" as="geometry">
            <mxPoint x="877" y="26" as="sourcePoint" />
            <mxPoint x="901" y="-28" as="targetPoint" />
          </mxGeometry>
        </mxCell>
        <mxCell id="3dJlBlgtG13hjPHBw9pj-28" value="Hasil Input Masuk ke Data" style="rounded=1;whiteSpace=wrap;html=1;" vertex="1" parent="1">
          <mxGeometry x="841" y="-23" width="120" height="60" as="geometry" />
        </mxCell>
        <mxCell id="3dJlBlgtG13hjPHBw9pj-29" value="Data yang ingin diupdate" style="shape=parallelogram;perimeter=parallelogramPerimeter;whiteSpace=wrap;html=1;fixedSize=1;" vertex="1" parent="1">
          <mxGeometry x="851" y="-197" width="120" height="60" as="geometry" />
        </mxCell>
        <mxCell id="3dJlBlgtG13hjPHBw9pj-30" value="" style="endArrow=classic;html=1;rounded=0;entryX=0.125;entryY=0.25;entryDx=0;entryDy=0;entryPerimeter=0;" edge="1" parent="1" target="3dJlBlgtG13hjPHBw9pj-29">
          <mxGeometry width="50" height="50" relative="1" as="geometry">
            <mxPoint x="829" y="-182" as="sourcePoint" />
            <mxPoint x="855" y="-186" as="targetPoint" />
          </mxGeometry>
        </mxCell>
        <mxCell id="3dJlBlgtG13hjPHBw9pj-31" value="" style="endArrow=classic;html=1;rounded=0;exitX=0.45;exitY=0.983;exitDx=0;exitDy=0;exitPerimeter=0;entryX=0.533;entryY=0;entryDx=0;entryDy=0;entryPerimeter=0;" edge="1" parent="1" target="3dJlBlgtG13hjPHBw9pj-25">
          <mxGeometry width="50" height="50" relative="1" as="geometry">
            <mxPoint x="904" y="-137.00000000000003" as="sourcePoint" />
            <mxPoint x="903" y="-113" as="targetPoint" />
          </mxGeometry>
        </mxCell>
        <mxCell id="3dJlBlgtG13hjPHBw9pj-32" value="" style="endArrow=classic;html=1;rounded=0;exitX=0.5;exitY=1;exitDx=0;exitDy=0;entryX=0.5;entryY=0;entryDx=0;entryDy=0;" edge="1" parent="1" source="3dJlBlgtG13hjPHBw9pj-21" target="3dJlBlgtG13hjPHBw9pj-33">
          <mxGeometry width="50" height="50" relative="1" as="geometry">
            <mxPoint x="725" y="1" as="sourcePoint" />
            <mxPoint x="717" y="-17" as="targetPoint" />
          </mxGeometry>
        </mxCell>
        <mxCell id="3dJlBlgtG13hjPHBw9pj-33" value="&quot;Data Plat&lt;div&gt;berhasil&lt;/div&gt;&lt;div&gt;ditambahkan&quot;&lt;/div&gt;" style="shape=parallelogram;perimeter=parallelogramPerimeter;whiteSpace=wrap;html=1;fixedSize=1;" vertex="1" parent="1">
          <mxGeometry x="657" y="-13" width="120" height="60" as="geometry" />
        </mxCell>
        <mxCell id="3dJlBlgtG13hjPHBw9pj-34" value="" style="endArrow=classic;html=1;rounded=0;exitX=1;exitY=1;exitDx=0;exitDy=0;" edge="1" parent="1" source="3dJlBlgtG13hjPHBw9pj-33">
          <mxGeometry width="50" height="50" relative="1" as="geometry">
            <mxPoint x="782" y="37" as="sourcePoint" />
            <mxPoint x="793" y="38" as="targetPoint" />
          </mxGeometry>
        </mxCell>
        <mxCell id="3dJlBlgtG13hjPHBw9pj-35" value="" style="endArrow=classic;html=1;rounded=0;exitX=0.5;exitY=1;exitDx=0;exitDy=0;entryX=0.5;entryY=0;entryDx=0;entryDy=0;" edge="1" parent="1" source="3dJlBlgtG13hjPHBw9pj-28" target="3dJlBlgtG13hjPHBw9pj-36">
          <mxGeometry width="50" height="50" relative="1" as="geometry">
            <mxPoint x="977" y="58" as="sourcePoint" />
            <mxPoint x="901" y="58" as="targetPoint" />
          </mxGeometry>
        </mxCell>
        <mxCell id="3dJlBlgtG13hjPHBw9pj-36" value="&quot;Data plat&lt;div&gt;berhasil&lt;/div&gt;&lt;div&gt;diupdate&quot;&lt;/div&gt;" style="shape=parallelogram;perimeter=parallelogramPerimeter;whiteSpace=wrap;html=1;fixedSize=1;" vertex="1" parent="1">
          <mxGeometry x="841" y="57" width="120" height="60" as="geometry" />
        </mxCell>
        <mxCell id="3dJlBlgtG13hjPHBw9pj-37" value="hapusdata" style="shape=process;whiteSpace=wrap;html=1;backgroundOutline=1;" vertex="1" parent="1">
          <mxGeometry x="1027" y="-277" width="120" height="60" as="geometry" />
        </mxCell>
        <mxCell id="3dJlBlgtG13hjPHBw9pj-38" value="" style="endArrow=classic;html=1;rounded=0;exitX=0.5;exitY=1;exitDx=0;exitDy=0;entryX=0.532;entryY=-0.002;entryDx=0;entryDy=0;entryPerimeter=0;" edge="1" parent="1" source="3dJlBlgtG13hjPHBw9pj-37" target="3dJlBlgtG13hjPHBw9pj-39">
          <mxGeometry width="50" height="50" relative="1" as="geometry">
            <mxPoint x="1090" y="-134" as="sourcePoint" />
            <mxPoint x="1087" y="-191" as="targetPoint" />
          </mxGeometry>
        </mxCell>
        <mxCell id="3dJlBlgtG13hjPHBw9pj-39" value="Data yang ingin dihapus" style="shape=parallelogram;perimeter=parallelogramPerimeter;whiteSpace=wrap;html=1;fixedSize=1;" vertex="1" parent="1">
          <mxGeometry x="1023" y="-190" width="120" height="60" as="geometry" />
        </mxCell>
        <mxCell id="3dJlBlgtG13hjPHBw9pj-40" value="" style="endArrow=classic;html=1;rounded=0;exitX=0.5;exitY=1;exitDx=0;exitDy=0;entryX=0.5;entryY=0;entryDx=0;entryDy=0;" edge="1" parent="1" source="3dJlBlgtG13hjPHBw9pj-39" target="3dJlBlgtG13hjPHBw9pj-41">
          <mxGeometry width="50" height="50" relative="1" as="geometry">
            <mxPoint x="1059" y="-56" as="sourcePoint" />
            <mxPoint x="1083" y="-110" as="targetPoint" />
          </mxGeometry>
        </mxCell>
        <mxCell id="3dJlBlgtG13hjPHBw9pj-41" value="Menghapus data plat yang dipilih" style="rounded=1;whiteSpace=wrap;html=1;" vertex="1" parent="1">
          <mxGeometry x="1023" y="-105" width="120" height="60" as="geometry" />
        </mxCell>
        <mxCell id="3dJlBlgtG13hjPHBw9pj-42" value="" style="endArrow=classic;html=1;rounded=0;exitX=0.5;exitY=1;exitDx=0;exitDy=0;entryX=0.5;entryY=0;entryDx=0;entryDy=0;" edge="1" parent="1" source="3dJlBlgtG13hjPHBw9pj-41" target="3dJlBlgtG13hjPHBw9pj-43">
          <mxGeometry width="50" height="50" relative="1" as="geometry">
            <mxPoint x="1091" y="2" as="sourcePoint" />
            <mxPoint x="1083" y="-16" as="targetPoint" />
          </mxGeometry>
        </mxCell>
        <mxCell id="3dJlBlgtG13hjPHBw9pj-43" value="&quot;Data Plat&lt;div&gt;berhasil&lt;/div&gt;&lt;div&gt;dihapus&quot;&lt;/div&gt;" style="shape=parallelogram;perimeter=parallelogramPerimeter;whiteSpace=wrap;html=1;fixedSize=1;" vertex="1" parent="1">
          <mxGeometry x="1023" y="-12" width="120" height="60" as="geometry" />
        </mxCell>
        <mxCell id="3dJlBlgtG13hjPHBw9pj-44" value="" style="endArrow=classic;html=1;rounded=0;exitX=1;exitY=1;exitDx=0;exitDy=0;" edge="1" parent="1" source="3dJlBlgtG13hjPHBw9pj-43">
          <mxGeometry width="50" height="50" relative="1" as="geometry">
            <mxPoint x="1148" y="38" as="sourcePoint" />
            <mxPoint x="1159" y="39" as="targetPoint" />
          </mxGeometry>
        </mxCell>
        <mxCell id="3dJlBlgtG13hjPHBw9pj-45" value="" style="endArrow=classic;html=1;rounded=0;entryX=0.125;entryY=0.197;entryDx=0;entryDy=0;entryPerimeter=0;" edge="1" parent="1" target="3dJlBlgtG13hjPHBw9pj-39">
          <mxGeometry width="50" height="50" relative="1" as="geometry">
            <mxPoint x="1005" y="-178" as="sourcePoint" />
            <mxPoint x="1010" y="-175" as="targetPoint" />
          </mxGeometry>
        </mxCell>
        <mxCell id="3dJlBlgtG13hjPHBw9pj-47" value="" style="endArrow=classic;html=1;rounded=0;exitX=1;exitY=0.5;exitDx=0;exitDy=0;entryX=0.5;entryY=0;entryDx=0;entryDy=0;" edge="1" parent="1" source="ve_Mp5ct2YPk5ltDy3JT-10" target="ve_Mp5ct2YPk5ltDy3JT-29">
          <mxGeometry width="50" height="50" relative="1" as="geometry">
            <mxPoint x="186" y="393" as="sourcePoint" />
            <mxPoint x="319" y="411" as="targetPoint" />
            <Array as="points">
              <mxPoint x="320" y="395" />
            </Array>
          </mxGeometry>
        </mxCell>
        <mxCell id="3dJlBlgtG13hjPHBw9pj-49" value="dataawal" style="shape=process;whiteSpace=wrap;html=1;backgroundOutline=1;" vertex="1" parent="1">
          <mxGeometry x="493" y="1112" width="120" height="60" as="geometry" />
        </mxCell>
        <mxCell id="3dJlBlgtG13hjPHBw9pj-51" value="" style="endArrow=classic;html=1;rounded=0;entryX=0.533;entryY=0.001;entryDx=0;entryDy=0;entryPerimeter=0;" edge="1" parent="1" target="ve_Mp5ct2YPk5ltDy3JT-114">
          <mxGeometry width="50" height="50" relative="1" as="geometry">
            <mxPoint x="553" y="898" as="sourcePoint" />
            <mxPoint x="593" y="848" as="targetPoint" />
          </mxGeometry>
        </mxCell>
        <mxCell id="3dJlBlgtG13hjPHBw9pj-52" value="Menuadmin" style="shape=process;whiteSpace=wrap;html=1;backgroundOutline=1;" vertex="1" parent="1">
          <mxGeometry x="1233.5" y="-277" width="120" height="60" as="geometry" />
        </mxCell>
        <mxCell id="3dJlBlgtG13hjPHBw9pj-53" value="" style="endArrow=classic;html=1;rounded=0;exitX=0.523;exitY=0.985;exitDx=0;exitDy=0;exitPerimeter=0;entryX=0.522;entryY=0.007;entryDx=0;entryDy=0;entryPerimeter=0;" edge="1" parent="1" source="3dJlBlgtG13hjPHBw9pj-52" target="3dJlBlgtG13hjPHBw9pj-54">
          <mxGeometry width="50" height="50" relative="1" as="geometry">
            <mxPoint x="1290.67" y="-217" as="sourcePoint" />
            <mxPoint x="1293" y="-193" as="targetPoint" />
          </mxGeometry>
        </mxCell>
        <mxCell id="3dJlBlgtG13hjPHBw9pj-54" value="&quot;Menu Admin&lt;div&gt;1. Tampilkan Data&lt;/div&gt;&lt;div&gt;2. Tambah Data&lt;/div&gt;&lt;div&gt;3. Update Data&lt;/div&gt;&lt;div&gt;4. Hapus Data&lt;/div&gt;&lt;div&gt;5. Logout&quot;&lt;/div&gt;" style="shape=parallelogram;perimeter=parallelogramPerimeter;whiteSpace=wrap;html=1;fixedSize=1;" vertex="1" parent="1">
          <mxGeometry x="1207" y="-190" width="173" height="90" as="geometry" />
        </mxCell>
        <mxCell id="3dJlBlgtG13hjPHBw9pj-55" value="" style="endArrow=classic;html=1;rounded=0;exitX=0.912;exitY=0.793;exitDx=0;exitDy=0;exitPerimeter=0;" edge="1" parent="1" source="3dJlBlgtG13hjPHBw9pj-54">
          <mxGeometry width="50" height="50" relative="1" as="geometry">
            <mxPoint x="1439" y="-171" as="sourcePoint" />
            <mxPoint x="1415" y="-119" as="targetPoint" />
          </mxGeometry>
        </mxCell>
        <mxCell id="3dJlBlgtG13hjPHBw9pj-56" value="menuadmin" style="shape=process;whiteSpace=wrap;html=1;backgroundOutline=1;" vertex="1" parent="1">
          <mxGeometry x="255" y="1202" width="120" height="60" as="geometry" />
        </mxCell>
        <mxCell id="3dJlBlgtG13hjPHBw9pj-59" style="edgeStyle=orthogonalEdgeStyle;rounded=0;orthogonalLoop=1;jettySize=auto;html=1;exitX=0.5;exitY=1;exitDx=0;exitDy=0;entryX=0;entryY=0.5;entryDx=0;entryDy=0;" edge="1" parent="1">
          <mxGeometry relative="1" as="geometry">
            <mxPoint x="317" y="1543" as="sourcePoint" />
            <mxPoint x="255" y="1231" as="targetPoint" />
            <Array as="points">
              <mxPoint x="317" y="1563" />
              <mxPoint x="130" y="1563" />
              <mxPoint x="130" y="1231" />
            </Array>
          </mxGeometry>
        </mxCell>
        <mxCell id="3dJlBlgtG13hjPHBw9pj-58" value="dataawal" style="shape=process;whiteSpace=wrap;html=1;backgroundOutline=1;" vertex="1" parent="1">
          <mxGeometry x="257" y="1484" width="120" height="60" as="geometry" />
        </mxCell>
        <mxCell id="3dJlBlgtG13hjPHBw9pj-74" style="edgeStyle=orthogonalEdgeStyle;rounded=0;orthogonalLoop=1;jettySize=auto;html=1;exitX=0.5;exitY=1;exitDx=0;exitDy=0;" edge="1" parent="1" source="3dJlBlgtG13hjPHBw9pj-62">
          <mxGeometry relative="1" as="geometry">
            <mxPoint x="254" y="1230" as="targetPoint" />
            <mxPoint x="466" y="1582" as="sourcePoint" />
            <Array as="points">
              <mxPoint x="466" y="1594" />
              <mxPoint x="130" y="1594" />
              <mxPoint x="130" y="1231" />
              <mxPoint x="254" y="1231" />
            </Array>
          </mxGeometry>
        </mxCell>
        <mxCell id="3dJlBlgtG13hjPHBw9pj-62" value="datatambah" style="shape=process;whiteSpace=wrap;html=1;backgroundOutline=1;" vertex="1" parent="1">
          <mxGeometry x="406" y="1520" width="120" height="60" as="geometry" />
        </mxCell>
        <mxCell id="3dJlBlgtG13hjPHBw9pj-67" value="" style="endArrow=none;html=1;rounded=0;exitX=1;exitY=0.5;exitDx=0;exitDy=0;" edge="1" parent="1" source="ve_Mp5ct2YPk5ltDy3JT-43">
          <mxGeometry width="50" height="50" relative="1" as="geometry">
            <mxPoint x="352" y="1420" as="sourcePoint" />
            <mxPoint x="464" y="1400" as="targetPoint" />
          </mxGeometry>
        </mxCell>
        <mxCell id="3dJlBlgtG13hjPHBw9pj-68" value="" style="endArrow=classic;html=1;rounded=0;entryX=0.5;entryY=0;entryDx=0;entryDy=0;" edge="1" parent="1" target="3dJlBlgtG13hjPHBw9pj-69">
          <mxGeometry width="50" height="50" relative="1" as="geometry">
            <mxPoint x="463" y="1400" as="sourcePoint" />
            <mxPoint x="575" y="1431" as="targetPoint" />
          </mxGeometry>
        </mxCell>
        <mxCell id="3dJlBlgtG13hjPHBw9pj-75" style="edgeStyle=orthogonalEdgeStyle;rounded=0;orthogonalLoop=1;jettySize=auto;html=1;exitX=1;exitY=0.5;exitDx=0;exitDy=0;entryX=0.5;entryY=0;entryDx=0;entryDy=0;" edge="1" parent="1" source="3dJlBlgtG13hjPHBw9pj-69" target="3dJlBlgtG13hjPHBw9pj-77">
          <mxGeometry relative="1" as="geometry">
            <mxPoint x="651.6787109375" y="1494.5028381347656" as="targetPoint" />
          </mxGeometry>
        </mxCell>
        <mxCell id="3dJlBlgtG13hjPHBw9pj-69" value="Menu = 2" style="rhombus;whiteSpace=wrap;html=1;" vertex="1" parent="1">
          <mxGeometry x="423" y="1413" width="80" height="80" as="geometry" />
        </mxCell>
        <mxCell id="3dJlBlgtG13hjPHBw9pj-70" value="" style="endArrow=classic;html=1;rounded=0;exitX=0.5;exitY=1;exitDx=0;exitDy=0;entryX=0.479;entryY=-0.001;entryDx=0;entryDy=0;entryPerimeter=0;" edge="1" parent="1" source="3dJlBlgtG13hjPHBw9pj-69" target="3dJlBlgtG13hjPHBw9pj-62">
          <mxGeometry width="50" height="50" relative="1" as="geometry">
            <mxPoint x="482" y="1531" as="sourcePoint" />
            <mxPoint x="463" y="1510" as="targetPoint" />
          </mxGeometry>
        </mxCell>
        <mxCell id="3dJlBlgtG13hjPHBw9pj-76" value="True" style="text;html=1;align=center;verticalAlign=middle;whiteSpace=wrap;rounded=0;labelBackgroundColor=none;" vertex="1" parent="1">
          <mxGeometry x="411" y="1490" width="60" height="30" as="geometry" />
        </mxCell>
        <mxCell id="3dJlBlgtG13hjPHBw9pj-80" style="edgeStyle=orthogonalEdgeStyle;rounded=0;orthogonalLoop=1;jettySize=auto;html=1;exitX=0.5;exitY=1;exitDx=0;exitDy=0;entryX=0.5;entryY=0;entryDx=0;entryDy=0;" edge="1" parent="1" source="3dJlBlgtG13hjPHBw9pj-77" target="3dJlBlgtG13hjPHBw9pj-78">
          <mxGeometry relative="1" as="geometry">
            <mxPoint x="653.1428571428573" y="1578.3467254638672" as="targetPoint" />
          </mxGeometry>
        </mxCell>
        <mxCell id="3dJlBlgtG13hjPHBw9pj-92" style="edgeStyle=orthogonalEdgeStyle;rounded=0;orthogonalLoop=1;jettySize=auto;html=1;exitX=1;exitY=0.5;exitDx=0;exitDy=0;entryX=0.5;entryY=0;entryDx=0;entryDy=0;" edge="1" parent="1" source="3dJlBlgtG13hjPHBw9pj-77" target="ve_Mp5ct2YPk5ltDy3JT-78">
          <mxGeometry relative="1" as="geometry">
            <mxPoint x="841.4886300223216" y="1554.886173793248" as="targetPoint" />
          </mxGeometry>
        </mxCell>
        <mxCell id="3dJlBlgtG13hjPHBw9pj-77" value="Menu = 3" style="rhombus;whiteSpace=wrap;html=1;labelBackgroundColor=none;" vertex="1" parent="1">
          <mxGeometry x="613" y="1474" width="80" height="80" as="geometry" />
        </mxCell>
        <mxCell id="3dJlBlgtG13hjPHBw9pj-83" style="edgeStyle=orthogonalEdgeStyle;rounded=0;orthogonalLoop=1;jettySize=auto;html=1;exitX=0.5;exitY=1;exitDx=0;exitDy=0;entryX=0.5;entryY=0;entryDx=0;entryDy=0;" edge="1" parent="1" source="3dJlBlgtG13hjPHBw9pj-78" target="3dJlBlgtG13hjPHBw9pj-79">
          <mxGeometry relative="1" as="geometry">
            <mxPoint x="652.9166666666667" y="1637.4809786478681" as="targetPoint" />
          </mxGeometry>
        </mxCell>
        <mxCell id="3dJlBlgtG13hjPHBw9pj-78" value="dataawal" style="shape=process;whiteSpace=wrap;html=1;backgroundOutline=1;" vertex="1" parent="1">
          <mxGeometry x="601.5" y="1580" width="103" height="35" as="geometry" />
        </mxCell>
        <mxCell id="3dJlBlgtG13hjPHBw9pj-79" value="dataupdate" style="shape=process;whiteSpace=wrap;html=1;backgroundOutline=1;" vertex="1" parent="1">
          <mxGeometry x="600.5" y="1637" width="104" height="36" as="geometry" />
        </mxCell>
        <mxCell id="3dJlBlgtG13hjPHBw9pj-82" value="True" style="text;html=1;align=center;verticalAlign=middle;whiteSpace=wrap;rounded=0;" vertex="1" parent="1">
          <mxGeometry x="605" y="1550" width="60" height="30" as="geometry" />
        </mxCell>
        <mxCell id="3dJlBlgtG13hjPHBw9pj-90" value="" style="endArrow=none;html=1;rounded=0;entryX=0.5;entryY=1;entryDx=0;entryDy=0;" edge="1" parent="1" target="3dJlBlgtG13hjPHBw9pj-79">
          <mxGeometry width="50" height="50" relative="1" as="geometry">
            <mxPoint x="652" y="1688" as="sourcePoint" />
            <mxPoint x="663" y="1682" as="targetPoint" />
          </mxGeometry>
        </mxCell>
        <mxCell id="3dJlBlgtG13hjPHBw9pj-91" value="" style="endArrow=none;html=1;rounded=0;" edge="1" parent="1">
          <mxGeometry width="50" height="50" relative="1" as="geometry">
            <mxPoint x="130" y="1688" as="sourcePoint" />
            <mxPoint x="652" y="1688" as="targetPoint" />
          </mxGeometry>
        </mxCell>
        <mxCell id="3dJlBlgtG13hjPHBw9pj-93" value="False" style="text;html=1;align=center;verticalAlign=middle;whiteSpace=wrap;rounded=0;" vertex="1" parent="1">
          <mxGeometry x="729" y="1487" width="60" height="30" as="geometry" />
        </mxCell>
        <mxCell id="3dJlBlgtG13hjPHBw9pj-94" style="edgeStyle=orthogonalEdgeStyle;rounded=0;orthogonalLoop=1;jettySize=auto;html=1;exitX=0.5;exitY=1;exitDx=0;exitDy=0;entryX=0.5;entryY=0;entryDx=0;entryDy=0;" edge="1" parent="1" target="3dJlBlgtG13hjPHBw9pj-96" source="ve_Mp5ct2YPk5ltDy3JT-78">
          <mxGeometry relative="1" as="geometry">
            <mxPoint x="829.6428571428573" y="1654.3467254638672" as="targetPoint" />
            <mxPoint x="829.5" y="1630" as="sourcePoint" />
          </mxGeometry>
        </mxCell>
        <mxCell id="3dJlBlgtG13hjPHBw9pj-95" style="edgeStyle=orthogonalEdgeStyle;rounded=0;orthogonalLoop=1;jettySize=auto;html=1;exitX=0.5;exitY=1;exitDx=0;exitDy=0;entryX=0.5;entryY=0;entryDx=0;entryDy=0;" edge="1" parent="1" source="3dJlBlgtG13hjPHBw9pj-96" target="3dJlBlgtG13hjPHBw9pj-97">
          <mxGeometry relative="1" as="geometry">
            <mxPoint x="829.4166666666667" y="1713.4809786478681" as="targetPoint" />
          </mxGeometry>
        </mxCell>
        <mxCell id="3dJlBlgtG13hjPHBw9pj-96" value="dataawal" style="shape=process;whiteSpace=wrap;html=1;backgroundOutline=1;" vertex="1" parent="1">
          <mxGeometry x="778" y="1656" width="103" height="35" as="geometry" />
        </mxCell>
        <mxCell id="3dJlBlgtG13hjPHBw9pj-97" value="hapusdata" style="shape=process;whiteSpace=wrap;html=1;backgroundOutline=1;" vertex="1" parent="1">
          <mxGeometry x="777" y="1713" width="104" height="36" as="geometry" />
        </mxCell>
        <mxCell id="3dJlBlgtG13hjPHBw9pj-98" value="True" style="text;html=1;align=center;verticalAlign=middle;whiteSpace=wrap;rounded=0;" vertex="1" parent="1">
          <mxGeometry x="780" y="1626" width="60" height="30" as="geometry" />
        </mxCell>
        <mxCell id="3dJlBlgtG13hjPHBw9pj-100" value="" style="endArrow=none;html=1;rounded=0;entryX=0.5;entryY=1;entryDx=0;entryDy=0;" edge="1" parent="1" target="3dJlBlgtG13hjPHBw9pj-97">
          <mxGeometry width="50" height="50" relative="1" as="geometry">
            <mxPoint x="829" y="1756" as="sourcePoint" />
            <mxPoint x="829" y="1752" as="targetPoint" />
          </mxGeometry>
        </mxCell>
        <mxCell id="3dJlBlgtG13hjPHBw9pj-102" value="" style="endArrow=none;html=1;rounded=0;" edge="1" parent="1">
          <mxGeometry width="50" height="50" relative="1" as="geometry">
            <mxPoint x="130" y="1756" as="sourcePoint" />
            <mxPoint x="829" y="1756" as="targetPoint" />
          </mxGeometry>
        </mxCell>
        <mxCell id="3dJlBlgtG13hjPHBw9pj-104" value="" style="endArrow=none;html=1;rounded=0;entryX=0.5;entryY=1;entryDx=0;entryDy=0;" edge="1" parent="1" target="ve_Mp5ct2YPk5ltDy3JT-87">
          <mxGeometry width="50" height="50" relative="1" as="geometry">
            <mxPoint x="1025" y="1782" as="sourcePoint" />
            <mxPoint x="1062" y="1703" as="targetPoint" />
          </mxGeometry>
        </mxCell>
        <mxCell id="3dJlBlgtG13hjPHBw9pj-106" value="&quot;Menu Tidak Valid&quot;" style="shape=parallelogram;perimeter=parallelogramPerimeter;whiteSpace=wrap;html=1;fixedSize=1;" vertex="1" parent="1">
          <mxGeometry x="1114" y="1673" width="130" height="62" as="geometry" />
        </mxCell>
        <mxCell id="3dJlBlgtG13hjPHBw9pj-107" value="" style="endArrow=none;html=1;rounded=0;entryX=0.477;entryY=1.002;entryDx=0;entryDy=0;entryPerimeter=0;" edge="1" parent="1" target="3dJlBlgtG13hjPHBw9pj-106">
          <mxGeometry width="50" height="50" relative="1" as="geometry">
            <mxPoint x="1176" y="1749" as="sourcePoint" />
            <mxPoint x="1178" y="1736" as="targetPoint" />
          </mxGeometry>
        </mxCell>
        <mxCell id="3dJlBlgtG13hjPHBw9pj-108" value="" style="endArrow=none;html=1;rounded=0;" edge="1" parent="1">
          <mxGeometry width="50" height="50" relative="1" as="geometry">
            <mxPoint x="1176" y="1749" as="sourcePoint" />
            <mxPoint x="1279" y="1749" as="targetPoint" />
          </mxGeometry>
        </mxCell>
        <mxCell id="3dJlBlgtG13hjPHBw9pj-109" value="False" style="text;html=1;align=center;verticalAlign=middle;whiteSpace=wrap;rounded=0;" vertex="1" parent="1">
          <mxGeometry x="902" y="1566" width="60" height="30" as="geometry" />
        </mxCell>
        <mxCell id="3dJlBlgtG13hjPHBw9pj-110" value="True" style="text;html=1;align=center;verticalAlign=middle;whiteSpace=wrap;rounded=0;" vertex="1" parent="1">
          <mxGeometry x="969" y="1713" width="60" height="30" as="geometry" />
        </mxCell>
        <mxCell id="3dJlBlgtG13hjPHBw9pj-111" value="False" style="text;html=1;align=center;verticalAlign=middle;whiteSpace=wrap;rounded=0;" vertex="1" parent="1">
          <mxGeometry x="1087" y="1624" width="60" height="30" as="geometry" />
        </mxCell>
        <mxCell id="3dJlBlgtG13hjPHBw9pj-112" value="" style="endArrow=classic;html=1;rounded=0;entryX=1;entryY=0.5;entryDx=0;entryDy=0;" edge="1" parent="1" target="3dJlBlgtG13hjPHBw9pj-56">
          <mxGeometry width="50" height="50" relative="1" as="geometry">
            <mxPoint x="1279" y="1236" as="sourcePoint" />
            <mxPoint x="674" y="1250" as="targetPoint" />
          </mxGeometry>
        </mxCell>
        <mxCell id="3dJlBlgtG13hjPHBw9pj-113" value="" style="endArrow=classic;html=1;rounded=0;exitX=0.879;exitY=0.808;exitDx=0;exitDy=0;exitPerimeter=0;" edge="1" parent="1" source="3dJlBlgtG13hjPHBw9pj-106">
          <mxGeometry width="50" height="50" relative="1" as="geometry">
            <mxPoint x="1248" y="1693" as="sourcePoint" />
            <mxPoint x="1264" y="1724" as="targetPoint" />
          </mxGeometry>
        </mxCell>
      </root>
    </mxGraphModel>
  </diagram>
</mxfile>
